<svg width="60" height="50" viewBox="0 0 60 50" fill="none" xmlns="http://www.w3.org/2000/svg">
<path d="M29.9539 45.1901C23.2748 49.1034 17.7116 48.6997 17.7116 48.6997C7.26436 48.2649 4.70915 40.609 4.70915 40.609C2.44505 34.7079 6.32637 28.9156 6.32637 28.9156C6.32637 28.9156 12.019 19.0235 26.9459 17.7036C26.9459 17.7036 31.4903 17.2066 37.005 18.3247M36.3743 40.1587C36.8109 39.7239 37.2476 39.258 37.6681 38.7766C37.6681 38.7766 45.0911 31.1518 44.8809 19.3496C44.8323 12.6255 41.4038 8.04443 41.4038 8.04443C36.9241 1.64643 30.3744 2.0036 30.3744 2.0036C24.2613 2.0036 19.345 6.50705 17.3396 11.4143C15.3343 16.3215 15.6577 20.8094 15.6577 20.8094M24.1319 25.7787C24.4877 26.9279 28.6278 39.3356 40.7246 41.3544C41.8243 41.5408 42.9402 41.5408 44.0237 41.3389C46.0938 40.9507 48.7622 39.7239 48.2932 35.8882C48.2932 35.8882 47.8565 31.8972 43.3607 28.9311M17 28.9466C17.5175 30.6393 21.3018 41.5252 33.6897 47.2244C33.6897 47.2244 40.4659 50.3458 47.1611 48.3115C53.8564 46.2771 55.3119 41.1681 55.3119 41.1681M55.3119 41.1681C57.1717 34.5371 55.5383 28.3565 46.9833 22.3933C46.304 21.9119 45.5763 21.4771 44.8485 21.0889M55.3119 41.1681C55.0047 37.8448 52.0775 37.3324 50.525 37.2858C48.9724 37.2392 48.1315 38.2175 48.1315 38.2175M20.283 27.0366C20.283 27.0366 21.8517 32.5028 25.9918 37.0373C30.1157 41.5718 34.7409 43.5906 34.7409 43.5906C34.7409 43.5906 43.8297 47.9077 51.1557 44.1186C51.1557 44.1186 55.134 42.0688 55.9426 37.8759M45.3822 40.9662C53.8403 38.6679 50.7029 30.8101 50.7029 30.8101C49.3444 26.9279 44.5251 24.2258 44.5251 24.2258M30.1642 35.7639C37.2638 29.2883 37.005 19.831 37.005 19.831C37.005 13.5262 34.1264 10.7776 32.2666 9.93899M32.2666 9.93899C31.1992 9.45758 29.9863 9.39547 28.8704 9.75264C24.3422 11.1968 23.4689 18.185 23.4689 18.185M32.2666 9.93899C31.1183 8.92959 27.0106 7.23692 23.1778 10.3272C19.345 13.4175 19.2803 19.2875 19.2803 19.2875M32.2666 9.93899C30.9566 8.10655 32.2666 5.87036 32.2666 5.87036C33.7867 3.16829 35.9053 3.30805 35.9053 3.30805M33.3178 38.4039C36.2611 34.7545 38.5899 31.6332 39.9807 25.5458M39.9807 25.5458C41.3715 19.4583 39.7543 14.225 39.7543 14.225C38.2017 7.82703 33.2045 4.75226 33.2045 4.75226C26.9136 0.854448 21.5282 5.52872 21.5282 5.52872M39.9807 25.5458C37.4902 25.1731 36.6331 23.6357 36.6331 23.6357M39.9807 25.5458C42.4874 25.9185 43.2313 25.7476 44.3795 25.1265M36.0994 25.9185C27.3987 23.6046 20.2668 27.0366 20.2668 27.0366C9.14033 32.6736 12.2292 38.4039 12.2292 38.4039C15.3666 43.777 23.4689 40.1742 23.4689 40.1742L23.7115 40.0655M12.5527 33.6364C12.5527 33.6364 9.0433 39.4599 13.62 43.4043C14.8168 44.4292 16.3208 45.0814 17.9057 45.3143C20.0242 45.6249 23.388 45.5162 27.0268 43.1403M36.9565 21.3218C22.6441 18.3558 13.0378 26.2912 13.0378 26.2912C5.24284 32.1922 5.77652 39.5375 5.77652 39.5375C5.77652 43.3111 9.23737 46.0908 9.23737 46.0908M17.3558 11.4143C17.3558 11.4143 21.1078 13.961 24.5848 14.2095M24.7627 3.35464C23.4365 6.52258 25.7815 8.91406 25.7815 8.91406C26.8489 10.0943 28.175 10.0322 28.175 10.0322M43.8944 13.2156C41.9052 13.4796 36.4228 15.3276 36.4228 15.3276M33.9 31.1207C33.9 31.1207 33.6897 32.6426 36.4228 34.2265C36.4228 34.2265 38.6707 35.4844 40.6438 34.739M27.4958 25.2352C28.9513 24.1481 28.7895 22.735 28.6602 20.7162C28.5308 18.7129 26.7842 17.7191 26.7842 17.7191M19.7331 27.3161C19.7008 26.229 19.8787 25.5458 18.6011 23.1077C17.3235 20.6696 15.9973 20.6541 15.9973 20.6541M6.34254 28.9001C6.34254 28.9001 7.08646 30.22 8.50962 31.0275C9.93277 31.8351 11.6147 32.9376 13.054 32.7823M25.4742 29.0398C25.4742 29.0398 23.8085 28.2789 21.1724 29.4125C18.5364 30.5461 18.3908 32.3475 18.3908 32.3475M29.8731 35.4378C27.7707 35.4223 26.0726 37.1305 26.0726 37.1305C23.9702 39.1648 24.1319 40.6401 24.1319 40.6401M4.70915 40.5935C4.70915 40.5935 6.09996 41.7892 7.89507 41.5718C9.69019 41.3544 11.8896 40.4071 12.1645 38.2486M12.5527 47.7524C12.5527 47.7524 14.7683 47.3797 15.6416 44.6621C16.5148 41.9445 15.399 40.9662 15.399 40.9662M21.9487 40.7022C21.9487 40.7022 22.3207 42.9384 23.0969 44.9416C23.0969 44.9416 23.8732 47.2244 24.2775 47.6748M36.8756 40.2984C36.8756 40.2984 36.0994 40.6556 34.8541 43.6527C34.8541 43.6527 33.9323 45.687 33.8029 47.271M47.0156 48.3581C47.9374 47.3487 47.6463 45.3454 47.6463 45.3454C47.2097 41.7271 44.897 41.1215 44.897 41.1215M54.5033 30.2977C54.5033 30.2977 53.3551 29.9716 50.7514 30.9188C48.1476 31.8506 47.5169 33.5277 47.5169 33.5277M43.6518 28.0304C44.6059 27.2229 44.9617 26.8657 46.0614 25.2507C47.1611 23.6357 47.1126 22.4865 47.1126 22.4865" stroke="#595959" stroke-width="0.870968" stroke-miterlimit="10" stroke-linejoin="round"/>
</svg>
